<svg width="17" height="17" viewBox="0 0 17 17" fill="none" xmlns="http://www.w3.org/2000/svg">
<path d="M14.7291 12.8529L10.3729 8.48009L14.7391 4.16368C14.9184 3.98439 14.9184 3.6922 14.7391 3.5129L13.4973 2.26447C13.4109 2.17814 13.2947 2.13165 13.1719 2.13165C13.049 2.13165 12.9328 2.18146 12.8465 2.26447L8.5002 6.56759L4.14727 2.26779C4.06094 2.18146 3.94473 2.13497 3.82187 2.13497C3.69902 2.13497 3.58281 2.18478 3.49648 2.26779L2.25801 3.51622C2.07871 3.69552 2.07871 3.98771 2.25801 4.167L6.62422 8.48341L2.27129 12.8529C2.18496 12.9393 2.13516 13.0555 2.13516 13.1783C2.13516 13.3012 2.18164 13.4174 2.27129 13.5037L3.51309 14.7522C3.60273 14.8418 3.71895 14.8883 3.83848 14.8883C3.95469 14.8883 4.07422 14.8451 4.16387 14.7522L8.5002 10.3959L12.8398 14.7488C12.9295 14.8385 13.0457 14.885 13.1652 14.885C13.2814 14.885 13.401 14.8418 13.4906 14.7488L14.7324 13.5004C14.8187 13.4141 14.8686 13.2979 14.8686 13.175C14.8652 13.0555 14.8154 12.9393 14.7291 12.8529Z" fill="black"/>
</svg>
